<svg viewBox="0 0 2084 2084" xmlns="http://www.w3.org/2000/svg" fill-rule="evenodd" clip-rule="evenodd" stroke-linejoin="round" stroke-miterlimit="2"><ellipse cx="1042" cy="1042" rx="892.64" ry="875.973" fill="#fff"/><path d="M1041.55 0C1616.398 0 2083.1 466.755 2083.1 1041.67c0 574.911-466.703 1041.67-1041.55 1041.67S0 1616.585 0 1041.67C0 466.758 466.703 0 1041.55 0zM530.909 376.797c39.334-33.684 94.522-61.353 142.5-41.869 86.273 35.035 318.066 502.401 318.066 502.401s324.223-460.675 440.674-502.684c39.727-14.331 94.19 10.876 135.728 41.934 145.789 109.007 160.852 261.087 148.25 303.277-15.844 53.042-821.199 1075.01-821.199 1075.01-24.085-9.824-501.267-895.591-527.126-1047.15-24.712-144.838 59.367-243.249 163.107-330.919z" fill="#ffffff"/></svg>

